<?xml version="1.0" encoding="UTF-8"?>
<!--Generator: Apple Native CoreSVG 175.5-->
<!DOCTYPE svg
PUBLIC "-//W3C//DTD SVG 1.1//EN"
       "http://www.w3.org/Graphics/SVG/1.1/DTD/svg11.dtd">
<svg version="1.1" xmlns="http://www.w3.org/2000/svg" xmlns:xlink="http://www.w3.org/1999/xlink" width="120" height="84.8047">
 <g transform="translate(15)">
  <rect height="84.8047" opacity="0" width="84.4922" x="0" y="0"/>
  <path d="M42.2266 62.3047C53.0859 62.3047 62.1094 53.2812 62.1094 42.3828C62.1094 31.4453 53.0859 22.4219 42.2266 22.4219C31.3672 22.4219 22.3438 31.4453 22.3438 42.3828C22.3438 53.2812 31.3672 62.3047 42.2266 62.3047ZM42.2656 15.1953C44.1016 15.1953 45.625 13.6719 45.625 11.7969L45.625 3.39844C45.625 1.52344 44.1016 0 42.2656 0C40.3906 0 38.8672 1.52344 38.8672 3.39844L38.8672 11.7969C38.8672 13.6719 40.3906 15.1953 42.2656 15.1953ZM61.4062 23.2031C62.7344 24.4922 64.8828 24.5312 66.2109 23.2031L72.1875 17.2266C73.4766 15.9375 73.4766 13.75 72.1875 12.4219C70.8984 11.1328 68.75 11.1328 67.4219 12.4219L61.4062 18.4375C60.1172 19.7656 60.1172 21.9141 61.4062 23.2031ZM69.3359 42.3828C69.3359 44.2188 70.8984 45.7422 72.7344 45.7422L81.1328 45.7422C82.9688 45.7422 84.4922 44.2188 84.4922 42.3828C84.4922 40.5469 82.9688 38.9844 81.1328 38.9844L72.7344 38.9844C70.8984 38.9844 69.3359 40.5469 69.3359 42.3828ZM61.4062 61.5625C60.1172 62.8906 60.1172 65.0391 61.4062 66.3281L67.4219 72.3828C68.75 73.6328 70.8984 73.5938 72.1875 72.3438C73.4766 71.0156 73.4766 68.8672 72.1875 67.5781L66.1719 61.5625C64.8828 60.3125 62.7344 60.3125 61.4062 61.5625ZM42.2656 69.5703C40.3906 69.5703 38.8672 71.0938 38.8672 72.9297L38.8672 81.3672C38.8672 83.2031 40.3906 84.7266 42.2656 84.7266C44.1016 84.7266 45.625 83.2031 45.625 81.3672L45.625 72.9297C45.625 71.0938 44.1016 69.5703 42.2656 69.5703ZM23.0859 61.5625C21.7578 60.3125 19.5703 60.3125 18.2812 61.5625L12.3047 67.5391C11.0156 68.8281 11.0156 70.9766 12.2656 72.3047C13.5547 73.5547 15.7422 73.5938 17.0703 72.3438L23.0469 66.3281C24.3359 65.0391 24.3359 62.8906 23.0859 61.5625ZM15.1562 42.3828C15.1562 40.5469 13.5938 38.9844 11.7578 38.9844L3.35938 38.9844C1.52344 38.9844 0 40.5469 0 42.3828C0 44.2188 1.52344 45.7422 3.35938 45.7422L11.7578 45.7422C13.5938 45.7422 15.1562 44.2188 15.1562 42.3828ZM23.0469 23.2031C24.3359 21.9531 24.3359 19.7266 23.0859 18.4375L17.1094 12.4219C15.8203 11.1719 13.6328 11.1328 12.3438 12.4219C11.0547 13.75 11.0547 15.9375 12.3047 17.1875L18.2812 23.2031C19.5703 24.4922 21.7188 24.4922 23.0469 23.2031Z" fill="#ffd60a"/>
 </g>
</svg>
