<?xml version="1.0" encoding="UTF-8"?>
<!--Generator: Apple Native CoreSVG 175.5-->
<!DOCTYPE svg
PUBLIC "-//W3C//DTD SVG 1.1//EN"
       "http://www.w3.org/Graphics/SVG/1.1/DTD/svg11.dtd">
<svg version="1.1" xmlns="http://www.w3.org/2000/svg" xmlns:xlink="http://www.w3.org/1999/xlink" width="120" height="77.5391">
 <g transform="translate(20)">
  <rect height="77.5391" opacity="0" width="77.0703" x="0" y="0"/>
  <path d="M60.4297 52.3438C39.2969 52.3438 25.7812 39.1016 25.7812 17.9297C25.7812 13.5547 26.8359 7.30469 28.2422 4.0625C28.5938 3.16406 28.6719 2.61719 28.6719 2.22656C28.6719 1.17188 27.8906 0 26.3672 0C25.9375 0 25 0.117188 24.1406 0.429688C9.6875 6.21094 0 21.7578 0 38.125C0 61.0938 17.5 77.5 40.3906 77.5C57.2266 77.5 71.7969 67.3047 76.6406 54.5703C76.9922 53.6719 77.0703 52.7344 77.0703 52.3828C77.0703 50.9375 75.8594 49.9609 74.7656 49.9609C74.2578 49.9609 73.8281 50.0781 73.0859 50.3125C70.0781 51.2891 65.2344 52.3438 60.4297 52.3438Z" fill="#ffffff"/>
 </g>
</svg>
