<?xml version="1.0" encoding="UTF-8"?>
<!--Generator: Apple Native CoreSVG 175.5-->
<!DOCTYPE svg
PUBLIC "-//W3C//DTD SVG 1.1//EN"
       "http://www.w3.org/Graphics/SVG/1.1/DTD/svg11.dtd">
<svg version="1.1" xmlns="http://www.w3.org/2000/svg" xmlns:xlink="http://www.w3.org/1999/xlink" width="113.203" height="82.0703">
 <g>
  <rect height="82.0703" opacity="0" width="113.203" x="0" y="0"/>
  <path d="M16.2891 78.6719L58.5547 78.6719C69.6875 78.6719 78.3203 70.2344 78.3203 59.375C78.3203 48.5938 69.5312 40.4297 57.8516 40.3516C53.3594 31.7969 45.2734 26.5625 35.625 26.5625C22.8906 26.5625 12.1094 36.4453 10.8984 49.2969C4.41406 51.25 0 56.7969 0 63.8281C0 72.5 6.52344 78.6719 16.2891 78.6719Z" fill="#ffffff"/>
  <path d="M82.8125 57.2656C88.5547 53.3594 92.0703 47.4219 92.0703 40.5078C92.0703 29.7656 83.5156 21.1328 72.7734 21.1328C65.7031 21.1328 59.5703 24.9609 56.3281 30.5859C57.9688 32.3047 59.375 34.1406 60.5469 36.4062C73.4375 37.4219 81.7578 45.4688 82.8125 57.2656ZM50.1172 22.4609C51.4062 23.75 53.5156 23.7109 54.7266 22.4609C55.9375 21.2109 55.9766 19.1797 54.7266 17.9297L48.7109 11.9141C47.4609 10.6641 45.4297 10.6641 44.1797 11.9141C42.9297 13.1641 42.8906 15.2344 44.1797 16.4844ZM72.7734 14.9609C74.5703 14.9609 76.0156 13.4375 76.0156 11.7188L76.0156 3.24219C76.0156 1.48438 74.5703 0 72.7734 0C70.9766 0 69.5312 1.48438 69.5312 3.24219L69.5312 11.7188C69.5312 13.4375 70.9766 14.9609 72.7734 14.9609ZM101.523 43.75L110 43.75C111.758 43.75 113.203 42.3047 113.203 40.5078C113.203 38.75 111.758 37.2656 110 37.2656L101.523 37.2656C99.8047 37.2656 98.2812 38.75 98.2812 40.5078C98.2812 42.3047 99.8047 43.75 101.523 43.75ZM90.8203 22.4609C92.0312 23.7109 94.1406 23.75 95.4297 22.4609L101.406 16.4844C102.656 15.2344 102.656 13.1641 101.406 11.9141C100.156 10.6641 98.125 10.6641 96.875 11.9141L90.8203 17.9297C89.5703 19.1797 89.6094 21.2109 90.8203 22.4609ZM96.875 69.1797C98.125 70.4297 100.156 70.3906 101.406 69.1406C102.656 67.8906 102.656 65.8203 101.406 64.6094L95.3516 58.6328C94.1016 57.4219 92.0703 57.3828 90.8203 58.6328C89.5703 59.8828 89.5703 61.9531 90.8203 63.2031Z" fill="#ffd60a"/>
 </g>
</svg>
