<?xml version="1.0" encoding="UTF-8"?>
<!--Generator: Apple Native CoreSVG 175.5-->
<!DOCTYPE svg
PUBLIC "-//W3C//DTD SVG 1.1//EN"
       "http://www.w3.org/Graphics/SVG/1.1/DTD/svg11.dtd">
<svg version="1.1" xmlns="http://www.w3.org/2000/svg" xmlns:xlink="http://www.w3.org/1999/xlink" width="120" height="68.4011">
 <g transform="translate(10)">
  <rect height="68.4011" opacity="0" width="102.148" x="0" y="0"/>
  <path d="M82.6953 46.0951C94.8828 43.9466 102.148 34.0248 102.148 27.6185C102.148 26.0951 101.484 25.0013 100.234 25.0013C98.3203 25.0013 95.4688 27.5013 90.0781 27.5013C80.5469 27.5013 74.5312 21.7201 74.5312 13.0091C74.5312 7.81384 77.2656 4.06384 77.2656 1.99352C77.2656 0.782587 76.4453-0.0377253 74.8828 0.00133723C67.6562 0.313837 58.5156 8.39977 56.4453 18.7904C57.6562 19.9232 58.8281 21.4466 59.8047 23.4779C72.9297 24.4935 82.4609 34.4154 82.6953 46.0951Z" fill="#ffffff"/>
  <path d="M16.2109 66.056L58.4766 66.056C69.5703 66.056 78.1641 57.6576 78.1641 46.8373C78.1641 36.0951 69.4141 27.9701 57.7344 27.892C53.1641 19.142 45 14.0638 35.5859 14.0638C22.8516 14.0638 12.1094 23.9466 10.8984 36.7982C4.25781 38.7904 0 44.4154 0 51.2904C0 60.0404 6.60156 66.056 16.2109 66.056Z" fill="#ffffff"/>
 </g>
</svg>
