<?xml version="1.0" encoding="UTF-8"?>
<!--Generator: Apple Native CoreSVG 175.5-->
<!DOCTYPE svg
PUBLIC "-//W3C//DTD SVG 1.1//EN"
       "http://www.w3.org/Graphics/SVG/1.1/DTD/svg11.dtd">
<svg version="1.1" xmlns="http://www.w3.org/2000/svg" xmlns:xlink="http://www.w3.org/1999/xlink" width="120" height="68.1641">
 <g transform="translate(13)">
  <rect height="68.1641" opacity="0" width="95.0391" x="0" y="0"/>
  <path d="M30.0391 68.125L78.5938 68.125C88.3984 68.125 95.0391 61.1328 95.0391 52.3828C95.0391 44.6875 89.5703 38.2812 82.2656 36.7969C81.6797 27.2656 73.9062 19.5312 64.1797 19.5312C57.8125 19.5312 52.3047 22.6953 48.9453 27.6562C47.2656 27.1094 45.7422 26.8359 43.9844 26.8359C36.4844 26.8359 30.3125 32.3047 29.2188 39.6094C21.4453 39.8438 15.3125 46.1719 15.3125 53.8281C15.3125 61.7969 21.2109 68.125 30.0391 68.125ZM11.4844 47.7734C13.5938 40.4688 18.6328 35.9375 25.5859 34.6094C28.4766 25.5859 36.0156 21.1328 44.6484 21.1328C45.625 21.1328 46.5234 21.25 47.3438 21.3672C50.7422 16.3672 55.9766 13.9453 62.6562 13.9453C61.3281 10.3906 57.3047 7.26562 51.0547 7.26562C49.2188 7.26562 47.7344 7.61719 46.0938 8.125C42.6562 3.125 37.2266 0 30.9766 0C21.3281 0 13.3594 7.69531 12.7734 17.2266C5.39062 18.7891 0 25.1562 0 32.8125C0 39.6875 4.17969 45.625 11.4844 47.7734Z" fill="#ffffff"/>
 </g>
</svg>
