<?xml version="1.0" encoding="UTF-8"?>
<!--Generator: Apple Native CoreSVG 175.5-->
<!DOCTYPE svg
PUBLIC "-//W3C//DTD SVG 1.1//EN"
       "http://www.w3.org/Graphics/SVG/1.1/DTD/svg11.dtd">
<svg version="1.1" xmlns="http://www.w3.org/2000/svg" xmlns:xlink="http://www.w3.org/1999/xlink" width="89.1797" height="90.0622">
 <g>
  <rect height="90.0622" opacity="0" width="89.1797" x="0" y="0"/>
  <path d="M19.375 77.746L24.4531 68.9178C25.1953 67.746 24.8047 66.3788 23.6328 65.6757C22.4609 65.0116 21.1328 65.3632 20.3906 66.5741L15.2734 75.4803C14.6094 76.5741 14.9609 77.9413 16.1719 78.6444C17.3047 79.3085 18.7109 78.8788 19.375 77.746ZM28.4766 88.8788L40 68.8788C40.6641 67.7069 40.3516 66.3788 39.2188 65.7147C38.0859 65.0116 36.6406 65.3632 35.9766 66.5741L24.5312 86.496C23.8672 87.6678 24.1797 89.035 25.3516 89.7382C26.4844 90.4022 27.8125 90.0116 28.4766 88.8788ZM50.4688 77.7069L55.5469 68.8788C56.25 67.7069 55.8594 66.3397 54.6875 65.6366C53.5156 64.9725 52.1875 65.3241 51.4844 66.535L46.3672 75.4413C45.7031 76.535 46.0156 77.9022 47.2266 78.6053C48.3984 79.2694 49.8047 78.8397 50.4688 77.7069ZM59.5312 88.8397L71.0938 68.8397C71.7578 67.6678 71.4062 66.3397 70.2734 65.6757C69.1797 64.9725 67.7734 65.3241 67.0703 66.535L55.5859 86.4569C54.9219 87.6288 55.2734 88.996 56.4062 89.6991C57.5391 90.3632 58.8672 90.0116 59.5312 88.8397Z" fill="#5ac8f5"/>
  <path d="M18.3594 59.4647L66.8359 59.4647C79.6484 59.4647 89.1797 49.7382 89.1797 37.7069C89.1797 25.246 79.0234 16.1444 65.7812 16.1444C60.8984 6.49596 51.8359 0.285026 40.5469 0.285026C25.8594 0.285026 13.75 11.8085 12.4609 26.3007C5.39062 28.371 0 34.5038 0 42.746C0 52.0038 6.71875 59.4647 18.3594 59.4647Z" fill="#ffffff"/>
 </g>
</svg>
