<?xml version="1.0" encoding="UTF-8"?>
<!--Generator: Apple Native CoreSVG 175.5-->
<!DOCTYPE svg
PUBLIC "-//W3C//DTD SVG 1.1//EN"
       "http://www.w3.org/Graphics/SVG/1.1/DTD/svg11.dtd">
<svg version="1.1" xmlns="http://www.w3.org/2000/svg" xmlns:xlink="http://www.w3.org/1999/xlink" width="113.008" height="109.883">
 <g>
  <rect height="109.883" opacity="0" width="113.008" x="0" y="0"/>
  <path d="M16.1719 78.5156L58.4375 78.5156C69.5312 78.5156 78.125 70.1172 78.125 59.2969C78.125 48.5547 69.375 40.4297 57.6953 40.3516C53.125 31.6016 45 26.5625 35.5469 26.5625C22.8516 26.5625 12.0703 36.4062 10.8984 49.2578C4.21875 51.25 0 56.875 0 63.75C0 72.5 6.5625 78.5156 16.1719 78.5156Z" fill="#ffffff"/>
  <path d="M82.6172 57.2656C88.3594 53.3594 91.875 47.4219 91.875 40.5078C91.875 29.7656 83.3203 21.1328 72.5781 21.1328C65.5078 21.1328 59.375 24.9609 56.1328 30.5859C57.7734 32.3047 59.1797 34.1016 60.3516 36.3672C73.2422 37.4219 81.5625 45.4297 82.6172 57.2656ZM49.9219 22.4609C51.2109 23.75 53.3203 23.7109 54.5312 22.4609C55.7422 21.2109 55.7812 19.1797 54.5312 17.9297L48.5156 11.9141C47.2656 10.625 45.2344 10.6641 43.9844 11.9141C42.7344 13.1641 42.6953 15.2344 43.9844 16.4844ZM72.5781 14.9219C74.375 14.9219 75.8203 13.4375 75.8203 11.6797L75.8203 3.24219C75.8203 1.48438 74.375 0 72.5781 0C70.7812 0 69.3359 1.48438 69.3359 3.24219L69.3359 11.6797C69.3359 13.4375 70.7812 14.9219 72.5781 14.9219ZM90.625 22.4609C91.8359 23.7109 93.9453 23.75 95.2344 22.4609L101.211 16.4844C102.461 15.2344 102.461 13.1641 101.211 11.9141C99.9609 10.6641 97.9297 10.625 96.6797 11.9141L90.625 17.9297C89.375 19.1797 89.4141 21.2109 90.625 22.4609ZM101.328 43.75L109.805 43.75C111.562 43.75 113.008 42.3047 113.008 40.5078C113.008 38.7109 111.562 37.2656 109.805 37.2656L101.328 37.2656C99.6094 37.2656 98.0859 38.7109 98.0859 40.5078C98.0859 42.3047 99.6094 43.75 101.328 43.75ZM96.6797 69.1797C97.9297 70.4297 99.9609 70.3906 101.211 69.1406C102.461 67.8906 102.461 65.8203 101.211 64.6094L95.1562 58.6328C93.9062 57.4219 91.875 57.3828 90.625 58.6328C89.375 59.8438 89.375 61.9531 90.625 63.2031Z" fill="#ffd60a"/>
  <path d="M15.7812 97.3047L20.8594 88.5156C21.5625 87.3047 21.2109 85.9375 20.0391 85.2344C18.8281 84.5703 17.5 84.9609 16.7969 86.1328L11.6797 95.0391C11.0156 96.1328 11.3672 97.5391 12.5391 98.2031C13.7109 98.8672 15.1172 98.4766 15.7812 97.3047ZM28.0078 108.32L33.0859 99.4922C33.7891 98.3203 33.3984 96.9141 32.2656 96.25C31.0547 95.5469 29.7266 95.9375 29.0234 97.1484L23.9062 106.016C23.2422 107.148 23.5938 108.516 24.7656 109.219C25.9375 109.844 27.3438 109.453 28.0078 108.32ZM46.875 97.2656L51.9531 88.4766C52.6562 87.2656 52.2656 85.8984 51.0938 85.1953C49.9219 84.5312 48.5938 84.9219 47.8906 86.0938L42.7734 95C42.1094 96.0938 42.4219 97.5 43.6328 98.1641C44.8047 98.8281 46.2109 98.4375 46.875 97.2656ZM59.0625 108.281L64.1797 99.4531C64.8828 98.2812 64.4922 96.875 63.3203 96.2109C62.1484 95.5078 60.8203 95.8984 60.0781 97.1094L54.9609 105.977C54.2969 107.109 54.6484 108.477 55.8594 109.18C56.9922 109.805 58.4375 109.414 59.0625 108.281Z" fill="#5ac8f5"/>
 </g>
</svg>
