<?xml version="1.0" encoding="UTF-8"?>
<!--Generator: Apple Native CoreSVG 175.5-->
<!DOCTYPE svg
PUBLIC "-//W3C//DTD SVG 1.1//EN"
       "http://www.w3.org/Graphics/SVG/1.1/DTD/svg11.dtd">
<svg version="1.1" xmlns="http://www.w3.org/2000/svg" xmlns:xlink="http://www.w3.org/1999/xlink" width="102.461" height="98.3407">
 <g>
  <rect height="98.3407" opacity="0" width="102.461" x="0" y="0"/>
  <path d="M15.3906 86.1039L20.5078 77.3149C21.2109 76.1039 20.8203 74.7367 19.6484 74.0727C18.4766 73.3696 17.1484 73.7602 16.4062 74.9711L11.2891 83.8383C10.625 84.9711 10.9766 86.3383 12.1875 87.0414C13.3203 87.6664 14.7266 87.2758 15.3906 86.1039ZM27.6172 97.1196L32.6953 88.2914C33.4375 87.1196 33.0469 85.7524 31.875 85.0492C30.7031 84.3852 29.375 84.7758 28.6328 85.9477L23.5156 94.8539C22.8516 95.9477 23.2031 97.3149 24.4141 98.018C25.5469 98.6821 26.9531 98.2914 27.6172 97.1196ZM46.4844 86.0649L51.5625 77.2758C52.2656 76.0649 51.875 74.6977 50.7422 74.0336C49.5312 73.3305 48.2031 73.7211 47.5 74.9321L42.3828 83.7992C41.7188 84.9321 42.0312 86.2992 43.2422 87.0024C44.4141 87.6274 45.8203 87.2367 46.4844 86.0649ZM58.7109 97.0805L63.7891 88.2524C64.4922 87.0805 64.1016 85.7133 62.9297 85.0102C61.7578 84.3461 60.4297 84.7367 59.7266 85.9086L54.6094 94.8149C53.9453 95.9086 54.2578 97.2758 55.4688 97.9789C56.6406 98.643 58.0469 98.2524 58.7109 97.0805Z" fill="#5ac8f5"/>
  <path d="M83.0078 47.5492C95.1953 45.4008 102.461 35.518 102.461 29.1117C102.461 27.5883 101.758 26.4555 100.508 26.4555C98.6328 26.4555 95.7812 28.9555 90.3906 28.9555C80.8203 28.9555 74.8047 23.2133 74.8047 14.4633C74.8047 9.30706 77.5781 5.55706 77.5781 3.44769C77.5781 2.23675 76.7578 1.4555 75.1953 1.49456C67.9688 1.80706 58.7891 9.85394 56.7578 20.2446C57.9688 21.3774 59.1406 22.9008 60.0781 24.9711C73.2422 25.9867 82.7734 35.9086 83.0078 47.5492Z" fill="#ffffff"/>
  <path d="M16.2109 67.393L58.4766 67.393C69.5312 67.393 78.125 59.0336 78.125 48.2133C78.125 37.4321 69.375 29.3071 57.6953 29.2289C53.125 20.518 45 15.4399 35.5469 15.4399C22.8516 15.4399 12.0703 25.3227 10.8984 38.1352C4.25781 40.1274 0 45.7524 0 52.6274C0 61.3774 6.60156 67.393 16.2109 67.393Z" fill="#ffffff"/>
 </g>
</svg>
