<?xml version="1.0" encoding="UTF-8"?>
<!--Generator: Apple Native CoreSVG 175.5-->
<!DOCTYPE svg
PUBLIC "-//W3C//DTD SVG 1.1//EN"
       "http://www.w3.org/Graphics/SVG/1.1/DTD/svg11.dtd">
<svg version="1.1" xmlns="http://www.w3.org/2000/svg" xmlns:xlink="http://www.w3.org/1999/xlink" width="89.1797" height="98.0618">
 <g>
  <rect height="98.0618" opacity="0" width="89.1797" x="0" y="0"/>
  <path d="M10.1953 82.6442C11.3672 83.3083 12.7734 82.9176 13.4375 81.7458L18.5156 72.9567C19.2188 71.7458 18.8281 70.3786 17.6562 69.6755C16.4844 69.0114 15.1562 69.402 14.4531 70.5739L9.33594 79.4801C8.67188 80.613 8.98438 81.9801 10.1953 82.6442ZM17.7734 93.5817C18.9453 94.2067 20.3516 93.8161 21.0156 92.6833L26.0938 83.8551C26.7969 82.6833 26.4062 81.3161 25.2344 80.613C24.0625 79.9098 22.7344 80.3005 22.0312 81.5114L16.875 90.3786C16.25 91.5114 16.5625 92.8786 17.7734 93.5817ZM64.4922 82.6442C65.6641 83.3083 67.0703 82.9176 67.7344 81.7458L72.8125 72.9567C73.5156 71.7458 73.125 70.3786 71.9922 69.6755C70.7812 69.0114 69.4531 69.402 68.75 70.5739L63.6328 79.4801C62.9688 80.613 63.2812 81.9801 64.4922 82.6442ZM72.0703 93.5817C73.2422 94.2067 74.6484 93.8161 75.3125 92.6833L80.3906 83.8551C81.0938 82.6833 80.7031 81.3161 79.5703 80.613C78.3594 79.9098 77.0312 80.3005 76.3281 81.5114L71.2109 90.3786C70.5469 91.5114 70.8594 92.8786 72.0703 93.5817Z" fill="#5ac8f5"/>
  <path d="M18.3594 63.4645L66.8359 63.4645C79.6484 63.4645 89.1797 53.738 89.1797 41.7067C89.1797 29.2458 79.0234 20.1442 65.7812 20.1442C60.8984 10.4958 51.8359 4.28483 40.5469 4.28483C25.8594 4.28483 13.75 15.8083 12.4609 30.3005C5.39062 32.3708 0 38.5036 0 46.7458C0 56.0036 6.71875 63.4645 18.3594 63.4645ZM53.9844 77.9567L45.1172 77.9567L45.0391 79.7145L49.8047 70.5739C50.2734 69.7145 49.9219 69.0505 49.0625 69.0505L40.5859 69.0505C39.4531 69.0505 39.0625 69.4411 38.7109 70.2614L33.3984 82.3708C32.9688 83.3473 33.3984 83.9333 34.4141 83.9333L41.6406 83.9333L42.1484 81.6286L35.8594 96.902C35.6641 97.4098 35.7812 97.8395 36.1328 97.9958C36.4844 98.152 36.9141 98.0348 37.3438 97.6051L54.6094 79.9098C55.4297 79.0505 55.1172 77.9567 53.9844 77.9567Z" fill="#ffffff"/>
 </g>
</svg>
