<?xml version="1.0" encoding="UTF-8"?>
<!--Generator: Apple Native CoreSVG 175.5-->
<!DOCTYPE svg
PUBLIC "-//W3C//DTD SVG 1.1//EN"
       "http://www.w3.org/Graphics/SVG/1.1/DTD/svg11.dtd">
<svg version="1.1" xmlns="http://www.w3.org/2000/svg" xmlns:xlink="http://www.w3.org/1999/xlink" width="89.1797" height="97.2266">
 <g>
  <rect height="97.2266" opacity="0" width="89.1797" x="0" y="0"/>
  <path d="M20.5859 82.5391C21.2891 82.5391 21.7969 81.875 21.7578 81.1719L21.5234 77.4219L24.6094 79.5312C25.1562 79.9219 26.0547 79.7656 26.4453 79.1797C26.7969 78.5938 26.6016 77.6953 25.8203 77.3438L22.5 75.7031L25.8594 74.0234C26.6016 73.6719 26.7578 72.8516 26.4844 72.2266C26.1328 71.6016 25.1562 71.4844 24.6094 71.875L21.5234 74.0234L21.7969 70.2734C21.875 69.5312 21.2891 68.9062 20.5859 68.9062C19.7656 68.9062 19.2969 69.5312 19.3359 70.2734L19.5703 74.0234L16.4453 71.875C15.8594 71.4844 15.0391 71.5625 14.6484 72.2266C14.2969 72.8516 14.4531 73.6719 15.1953 74.0234L18.5547 75.7031L15.1953 77.3438C14.4531 77.6953 14.2578 78.5547 14.6094 79.1797C14.9609 79.8047 15.8594 79.9219 16.4453 79.5703L19.5703 77.4609L19.375 81.1719C19.3359 81.875 19.7656 82.5391 20.5859 82.5391ZM42.2266 82.5391C42.9297 82.5391 43.4375 81.875 43.3984 81.1719L43.1641 77.4219L46.25 79.5312C46.7969 79.9219 47.6953 79.7656 48.0859 79.1797C48.4375 78.5938 48.2422 77.6953 47.4609 77.3438L44.1016 75.7031L47.5 74.0234C48.2422 73.6719 48.3984 72.8516 48.125 72.2266C47.7734 71.6016 46.7969 71.4844 46.25 71.875L43.1641 74.0234L43.4375 70.2734C43.5156 69.5312 42.9297 68.9062 42.2266 68.9062C41.4062 68.9062 40.9375 69.5312 40.9766 70.2734L41.2109 74.0234L38.0469 71.875C37.5 71.4844 36.6797 71.5625 36.2891 72.2266C35.9375 72.8516 36.0938 73.6719 36.8359 74.0234L40.1953 75.7031L36.8359 77.3438C36.0938 77.6953 35.8984 78.5547 36.25 79.1797C36.6016 79.8047 37.5 79.9219 38.0469 79.5703L41.2109 77.4609L41.0156 81.1719C40.9766 81.875 41.4062 82.5391 42.2266 82.5391ZM63.8672 82.5391C64.5703 82.5391 65.0781 81.875 65.0391 81.1719L64.7656 77.4219L67.8906 79.5312C68.4375 79.9219 69.3359 79.7656 69.7266 79.1797C70.0781 78.5938 69.8828 77.6953 69.1016 77.3438L65.7422 75.7031L69.1406 74.0234C69.8828 73.6719 70.0391 72.8516 69.7656 72.2266C69.4141 71.6016 68.4375 71.4844 67.8906 71.875L64.7656 74.0234L65.0781 70.2734C65.1562 69.5312 64.5703 68.9062 63.8672 68.9062C63.0469 68.9062 62.5781 69.5312 62.6172 70.2734L62.8516 74.0234L59.6875 71.875C59.1406 71.4844 58.3203 71.5625 57.9297 72.2266C57.5781 72.8516 57.7344 73.6719 58.4766 74.0234L61.8359 75.7031L58.4766 77.3438C57.7344 77.6953 57.5391 78.5547 57.8906 79.1797C58.2422 79.8047 59.1406 79.9219 59.6875 79.5703L62.8516 77.4609L62.6562 81.1719C62.6172 81.875 63.0469 82.5391 63.8672 82.5391ZM12.1094 97.2266C12.8125 97.2266 13.3203 96.5234 13.2812 95.8203L13.0469 92.1094L16.1328 94.2188C16.7188 94.5703 17.5781 94.4141 17.9688 93.8281C18.3203 93.2422 18.125 92.3438 17.3438 91.9922L14.0234 90.3906L17.3828 88.7109C18.125 88.3594 18.2812 87.5 18.0078 86.9141C17.6562 86.2891 16.7188 86.1719 16.1328 86.5234L13.0469 88.7109L13.3203 84.9219C13.3984 84.1797 12.8125 83.5547 12.1094 83.5547C11.2891 83.5547 10.8203 84.1797 10.8594 84.9219L11.0938 88.7109L7.96875 86.5234C7.38281 86.1719 6.5625 86.25 6.17188 86.9141C5.82031 87.5 5.97656 88.3203 6.71875 88.7109L10.0781 90.3906L6.71875 92.0312C5.97656 92.3828 5.78125 93.2031 6.13281 93.8281C6.48438 94.4922 7.38281 94.6094 7.96875 94.2188L11.0938 92.1094L10.8984 95.8203C10.8594 96.5234 11.2891 97.2266 12.1094 97.2266ZM33.75 97.2266C34.4531 97.2266 34.9609 96.5234 34.9219 95.8203L34.6875 92.1094L37.7734 94.2188C38.3203 94.5703 39.2188 94.4141 39.6094 93.8281C39.9609 93.2422 39.7656 92.3438 38.9844 91.9922L35.625 90.3906L39.0234 88.7109C39.7656 88.3594 39.9219 87.5 39.6484 86.9141C39.2969 86.2891 38.3203 86.1719 37.7734 86.5234L34.6875 88.7109L34.9609 84.9219C35.0391 84.1797 34.4531 83.5547 33.75 83.5547C32.9297 83.5547 32.4609 84.1797 32.5 84.9219L32.7344 88.7109L29.5703 86.5234C29.0234 86.1719 28.2031 86.25 27.8125 86.9141C27.4609 87.5 27.6172 88.3203 28.3594 88.7109L31.7188 90.3906L28.3594 92.0312C27.6172 92.3828 27.4219 93.2031 27.7734 93.8281C28.125 94.4922 29.0234 94.6094 29.5703 94.2188L32.7344 92.1094L32.5391 95.8203C32.5 96.5234 32.9297 97.2266 33.75 97.2266ZM55.3906 97.2266C56.0938 97.2266 56.6016 96.5234 56.5625 95.8203L56.2891 92.1094L59.4141 94.2188C59.9609 94.5703 60.8594 94.4141 61.25 93.8281C61.6016 93.2422 61.4062 92.3438 60.625 91.9922L57.2656 90.3906L60.6641 88.7109C61.4062 88.3594 61.5625 87.5 61.2891 86.9141C60.9375 86.2891 59.9609 86.1719 59.4141 86.5234L56.2891 88.7109L56.6016 84.9219C56.6797 84.1797 56.0938 83.5547 55.3906 83.5547C54.5703 83.5547 54.1016 84.1797 54.1406 84.9219L54.375 88.7109L51.2109 86.5234C50.6641 86.1719 49.8438 86.25 49.4531 86.9141C49.1016 87.5 49.2578 88.3203 50 88.7109L53.3594 90.3906L50 92.0312C49.2578 92.3828 49.0625 93.2031 49.4141 93.8281C49.7656 94.4922 50.6641 94.6094 51.2109 94.2188L54.375 92.1094L54.1797 95.8203C54.1406 96.5234 54.5703 97.2266 55.3906 97.2266Z" fill="#ffffff"/>
  <path d="M18.3594 63.0469L66.8359 63.0469C79.6484 63.0469 89.1797 53.3203 89.1797 41.2891C89.1797 28.8281 79.0234 19.7266 65.7812 19.7266C60.8984 10.0781 51.8359 3.86719 40.5469 3.86719C25.8594 3.86719 13.75 15.3906 12.4609 29.8828C5.39062 31.9531 0 38.0859 0 46.3281C0 55.5859 6.71875 63.0469 18.3594 63.0469Z" fill="#ffffff"/>
 </g>
</svg>
