<?xml version="1.0" encoding="UTF-8"?>
<!--Generator: Apple Native CoreSVG 175.5-->
<!DOCTYPE svg
PUBLIC "-//W3C//DTD SVG 1.1//EN"
       "http://www.w3.org/Graphics/SVG/1.1/DTD/svg11.dtd">
<svg version="1.1" xmlns="http://www.w3.org/2000/svg" xmlns:xlink="http://www.w3.org/1999/xlink" width="89.1797" height="89.4922">
 <g>
  <rect height="89.4922" opacity="0" width="89.1797" x="0" y="0"/>
  <path d="M70.3906 68.2422L19.5703 68.2422C18.2031 68.2422 17.1094 69.2969 17.1094 70.7031C17.1094 72.1094 18.2031 73.1641 19.5703 73.1641L70.3906 73.1641C71.7578 73.1641 72.8516 72.1094 72.8516 70.7031C72.8516 69.2969 71.7578 68.2422 70.3906 68.2422ZM70.3906 81.4844L19.5703 81.4844C18.2031 81.4844 17.1094 82.5391 17.1094 83.9453C17.1094 85.3516 18.2031 86.4453 19.5703 86.4453L70.3906 86.4453C71.7578 86.4453 72.8516 85.3516 72.8516 83.9453C72.8516 82.5391 71.7578 81.4844 70.3906 81.4844Z" fill="#ffffff"/>
  <path d="M18.3594 59.1797L66.8359 59.1797C79.6484 59.1797 89.1797 49.4531 89.1797 37.4219C89.1797 24.9609 79.0234 15.8594 65.7812 15.8594C60.8984 6.21094 51.8359 0 40.5469 0C25.8594 0 13.75 11.5234 12.4609 26.0156C5.39062 28.0859 0 34.2188 0 42.4609C0 51.7188 6.71875 59.1797 18.3594 59.1797Z" fill="#ffffff"/>
 </g>
</svg>
