<?xml version="1.0" encoding="UTF-8"?>
<!--Generator: Apple Native CoreSVG 175.5-->
<!DOCTYPE svg
PUBLIC "-//W3C//DTD SVG 1.1//EN"
       "http://www.w3.org/Graphics/SVG/1.1/DTD/svg11.dtd">
<svg version="1.1" xmlns="http://www.w3.org/2000/svg" xmlns:xlink="http://www.w3.org/1999/xlink" width="59.2188" height="73.7891">
 <g>
  <rect height="73.7891" opacity="0" width="59.2188" x="0" y="0"/>
  <path d="M29.6094 73.7891C31.6406 73.7891 33.0859 72.3828 33.0859 70.3516L33.0859 18.9062L32.6953 7.26562L30.4688 8.04688L44.4922 23.3984L53.3984 32.1484C54.0234 32.7734 54.9219 33.0859 55.8594 33.0859C57.8125 33.0859 59.2188 31.6016 59.2188 29.6875C59.2188 28.75 58.9062 27.9297 58.1641 27.1484L32.2266 1.17188C31.4844 0.390625 30.5859 0 29.6094 0C28.6328 0 27.7344 0.390625 26.9922 1.17188L1.09375 27.1484C0.351562 27.9297 0 28.75 0 29.6875C0 31.6016 1.40625 33.0859 3.35938 33.0859C4.29688 33.0859 5.23438 32.7734 5.82031 32.1484L14.7266 23.3984L28.7109 8.04688L26.5234 7.26562L26.1328 18.9062L26.1328 70.3516C26.1328 72.3828 27.5781 73.7891 29.6094 73.7891Z" fill="#ffffff" fill-opacity="0.85" stroke="#ffffff" stroke-width="4"/>
 </g>
</svg>
