<?xml version="1.0" encoding="UTF-8"?>
<!--Generator: Apple Native CoreSVG 175.5-->
<!DOCTYPE svg
PUBLIC "-//W3C//DTD SVG 1.1//EN"
       "http://www.w3.org/Graphics/SVG/1.1/DTD/svg11.dtd">
<svg version="1.1" xmlns="http://www.w3.org/2000/svg" xmlns:xlink="http://www.w3.org/1999/xlink" width="59.2188" height="73.7891">
 <g>
  <rect height="73.7891" opacity="0" width="59.2188" x="0" y="0"/>
  <path d="M29.6094 0C27.5781 0 26.1328 1.40625 26.1328 3.4375L26.1328 54.8828L26.5234 66.5234L28.7109 65.7422L14.7266 50.3906L5.82031 41.6406C5.23438 41.0156 4.29688 40.7031 3.35938 40.7031C1.40625 40.7031 0 42.1875 0 44.1016C0 45.0391 0.351562 45.8594 1.09375 46.6406L26.9922 72.6172C27.7344 73.3984 28.6328 73.7891 29.6094 73.7891C30.5859 73.7891 31.4844 73.3984 32.2266 72.6172L58.1641 46.6406C58.9062 45.8594 59.2188 45.0391 59.2188 44.1016C59.2188 42.1875 57.8125 40.7031 55.8594 40.7031C54.9219 40.7031 54.0234 41.0156 53.3984 41.6406L44.4922 50.3906L30.4688 65.7422L32.6953 66.5234L33.0859 54.8828L33.0859 3.4375C33.0859 1.40625 31.6406 0 29.6094 0Z" fill="#ffffff" fill-opacity="0.85" stroke="#ffffff" stroke-width="4"/>
 </g>
</svg>
