<?xml version="1.0" encoding="UTF-8"?>
<!--Generator: Apple Native CoreSVG 175.5-->
<!DOCTYPE svg
PUBLIC "-//W3C//DTD SVG 1.1//EN"
       "http://www.w3.org/Graphics/SVG/1.1/DTD/svg11.dtd">
<svg version="1.1" xmlns="http://www.w3.org/2000/svg" xmlns:xlink="http://www.w3.org/1999/xlink" width="77.8516" height="71.9922">
 <g>
  <rect height="71.9922" opacity="0" width="77.8516" x="0" y="0"/>
  <path d="M12.2656 71.9922L65.625 71.9922C73.7891 71.9922 77.8516 67.9297 77.8516 59.8828L77.8516 12.1875C77.8516 4.14062 73.7891 0.078125 65.625 0.078125L12.2656 0.078125C4.10156 0.078125 0 4.10156 0 12.1875L0 59.8828C0 67.9688 4.10156 71.9922 12.2656 71.9922ZM11.6797 65.7031C8.20312 65.7031 6.28906 63.8672 6.28906 60.2344L6.28906 23.3984C6.28906 19.8047 8.20312 17.9297 11.6797 17.9297L66.1328 17.9297C69.6094 17.9297 71.5625 19.8047 71.5625 23.3984L71.5625 60.2344C71.5625 63.8672 69.6094 65.7031 66.1328 65.7031ZM31.3281 31.9531L33.6328 31.9531C35 31.9531 35.4297 31.5625 35.4297 30.1953L35.4297 27.8906C35.4297 26.5234 35 26.0938 33.6328 26.0938L31.3281 26.0938C29.9609 26.0938 29.4922 26.5234 29.4922 27.8906L29.4922 30.1953C29.4922 31.5625 29.9609 31.9531 31.3281 31.9531ZM44.2969 31.9531L46.6016 31.9531C47.9688 31.9531 48.4375 31.5625 48.4375 30.1953L48.4375 27.8906C48.4375 26.5234 47.9688 26.0938 46.6016 26.0938L44.2969 26.0938C42.9297 26.0938 42.4609 26.5234 42.4609 27.8906L42.4609 30.1953C42.4609 31.5625 42.9297 31.9531 44.2969 31.9531ZM57.2656 31.9531L59.5703 31.9531C60.9375 31.9531 61.4062 31.5625 61.4062 30.1953L61.4062 27.8906C61.4062 26.5234 60.9375 26.0938 59.5703 26.0938L57.2656 26.0938C55.8984 26.0938 55.4688 26.5234 55.4688 27.8906L55.4688 30.1953C55.4688 31.5625 55.8984 31.9531 57.2656 31.9531ZM18.3594 44.7266L20.625 44.7266C22.0312 44.7266 22.4609 44.3359 22.4609 42.9688L22.4609 40.6641C22.4609 39.2969 22.0312 38.9062 20.625 38.9062L18.3594 38.9062C16.9531 38.9062 16.5234 39.2969 16.5234 40.6641L16.5234 42.9688C16.5234 44.3359 16.9531 44.7266 18.3594 44.7266ZM31.3281 44.7266L33.6328 44.7266C35 44.7266 35.4297 44.3359 35.4297 42.9688L35.4297 40.6641C35.4297 39.2969 35 38.9062 33.6328 38.9062L31.3281 38.9062C29.9609 38.9062 29.4922 39.2969 29.4922 40.6641L29.4922 42.9688C29.4922 44.3359 29.9609 44.7266 31.3281 44.7266ZM44.2969 44.7266L46.6016 44.7266C47.9688 44.7266 48.4375 44.3359 48.4375 42.9688L48.4375 40.6641C48.4375 39.2969 47.9688 38.9062 46.6016 38.9062L44.2969 38.9062C42.9297 38.9062 42.4609 39.2969 42.4609 40.6641L42.4609 42.9688C42.4609 44.3359 42.9297 44.7266 44.2969 44.7266ZM57.2656 44.7266L59.5703 44.7266C60.9375 44.7266 61.4062 44.3359 61.4062 42.9688L61.4062 40.6641C61.4062 39.2969 60.9375 38.9062 59.5703 38.9062L57.2656 38.9062C55.8984 38.9062 55.4688 39.2969 55.4688 40.6641L55.4688 42.9688C55.4688 44.3359 55.8984 44.7266 57.2656 44.7266ZM18.3594 57.5391L20.625 57.5391C22.0312 57.5391 22.4609 57.1094 22.4609 55.7422L22.4609 53.4375C22.4609 52.0703 22.0312 51.6797 20.625 51.6797L18.3594 51.6797C16.9531 51.6797 16.5234 52.0703 16.5234 53.4375L16.5234 55.7422C16.5234 57.1094 16.9531 57.5391 18.3594 57.5391ZM31.3281 57.5391L33.6328 57.5391C35 57.5391 35.4297 57.1094 35.4297 55.7422L35.4297 53.4375C35.4297 52.0703 35 51.6797 33.6328 51.6797L31.3281 51.6797C29.9609 51.6797 29.4922 52.0703 29.4922 53.4375L29.4922 55.7422C29.4922 57.1094 29.9609 57.5391 31.3281 57.5391ZM44.2969 57.5391L46.6016 57.5391C47.9688 57.5391 48.4375 57.1094 48.4375 55.7422L48.4375 53.4375C48.4375 52.0703 47.9688 51.6797 46.6016 51.6797L44.2969 51.6797C42.9297 51.6797 42.4609 52.0703 42.4609 53.4375L42.4609 55.7422C42.4609 57.1094 42.9297 57.5391 44.2969 57.5391Z" fill="#ffffff" fill-opacity="0.85"/>
 </g>
</svg>
